<svg width="46" height="58" viewBox="0 0 46 58" fill="none" xmlns="http://www.w3.org/2000/svg">
<path d="M6.25061 57.2522C4.69108 57.2522 3.35556 56.6964 2.24404 55.5849C1.13252 54.4734 0.577704 53.1388 0.579595 51.5811V17.5551C0.579595 15.9955 1.13535 14.66 2.24687 13.5485C3.35839 12.437 4.69297 11.8822 6.25061 11.884H11.9216C11.9216 8.76499 13.0322 6.09489 15.2533 3.87374C17.4745 1.6526 20.1446 0.542023 23.2636 0.542023C26.3827 0.542023 29.0528 1.6526 31.274 3.87374C33.4951 6.09489 34.6057 8.76499 34.6057 11.884H40.2767C41.8362 11.884 43.1717 12.4398 44.2833 13.5513C45.3948 14.6628 45.9496 15.9974 45.9477 17.5551V51.5811C45.9477 53.1407 45.3919 54.4762 44.2804 55.5877C43.1689 56.6992 41.8343 57.254 40.2767 57.2522H6.25061ZM6.25061 51.5811H40.2767V17.5551H34.6057V23.2261C34.6057 24.0295 34.3335 24.7034 33.789 25.2478C33.2446 25.7922 32.5717 26.0635 31.7702 26.0616C30.9668 26.0616 30.2929 25.7894 29.7484 25.245C29.204 24.7005 28.9328 24.0276 28.9347 23.2261V17.5551H17.5926V23.2261C17.5926 24.0295 17.3204 24.7034 16.776 25.2478C16.2316 25.7922 15.5586 26.0635 14.7571 26.0616C13.9537 26.0616 13.2798 25.7894 12.7354 25.245C12.191 24.7005 11.9197 24.0276 11.9216 23.2261V17.5551H6.25061V51.5811ZM17.5926 11.884H28.9347C28.9347 10.3245 28.3789 8.989 27.2674 7.87748C26.1559 6.76596 24.8213 6.21115 23.2636 6.21304C21.7041 6.21304 20.3686 6.76879 19.2571 7.88031C18.1456 8.99183 17.5907 10.3264 17.5926 11.884Z" fill="#3C3C3C"/>
</svg>
