<svg width="51" height="36" viewBox="0 0 51 36" fill="none" xmlns="http://www.w3.org/2000/svg">
<path d="M20 25.5V26.3665L20.7502 25.9329L33.7252 18.4329L34.4741 18L33.7252 17.5671L20.7502 10.0671L20 9.63346V10.5V25.5ZM25.5 35.5V35C20.2677 35 16.0281 34.9001 12.7787 34.7133C9.5176 34.5259 7.28962 34.2526 6.05726 33.9178C3.97727 33.3396 2.65985 32.0219 2.08187 29.9416C1.76973 28.813 1.54771 27.2757 1.3986 25.2876L1.39864 25.2876L1.3981 25.2814C1.22418 23.2938 1.15 21.5835 1.15 20.1V20.0822L1.14873 20.0644L1 17.9822C1.00087 12.5309 1.40069 8.56512 2.08212 6.05751C2.66035 3.97734 3.9781 2.65983 6.05852 2.08184C7.17142 1.77407 9.26686 1.54975 12.5727 1.39948L12.5727 1.3995L12.5769 1.39928C15.8181 1.22475 18.7842 1.15 21.525 1.15H21.5344L21.5439 1.14964L25.5094 1C30.7374 1.00012 34.9739 1.10004 38.2213 1.28668C41.4821 1.47408 43.7099 1.74732 44.9424 2.08209C47.0225 2.66028 48.3401 3.97797 48.9181 6.05829C49.2302 7.18686 49.4523 8.72419 49.6014 10.7124L49.6014 10.7124L49.6019 10.7186C49.7758 12.7062 49.85 14.4165 49.85 15.9V15.9178L49.8513 15.9356L50 18.0178C49.9991 23.4693 49.5993 27.4352 48.9178 29.9428C48.3263 32.0707 47.0969 33.5548 44.9925 33.9069C41.7411 34.4508 36.8773 34.7253 32.805 34.8628C30.7734 34.9314 28.9465 34.9657 27.6275 34.9829C26.9681 34.9914 26.4358 34.9957 26.0685 34.9979C25.8849 34.9989 25.7425 34.9995 25.6462 34.9997L25.5368 35L25.5091 35L25.5022 35H25.5005H25.5001C25.5 35 25.5 35 25.5 35.5Z" fill="#584CB0" stroke="black"/>
</svg>
