<svg width="36" height="36" viewBox="0 0 36 36" fill="none" xmlns="http://www.w3.org/2000/svg">
<path d="M17.596 26.2172H17.5965C19.8821 26.2148 22.0734 25.3058 23.6896 23.6896C25.3058 22.0734 26.2148 19.8821 26.2172 17.5965V17.596C26.2172 15.8908 25.7115 14.224 24.7642 12.8063C23.8169 11.3885 22.4705 10.2835 20.8952 9.631C19.3198 8.97848 17.5864 8.80775 15.914 9.1404C14.2417 9.47305 12.7055 10.2941 11.4998 11.4998C10.2941 12.7055 9.47305 14.2417 9.1404 15.914C8.80775 17.5864 8.97848 19.3198 9.631 20.8952C10.2835 22.4705 11.3885 23.8169 12.8063 24.7642C14.224 25.7115 15.8908 26.2172 17.596 26.2172ZM9.47501 0.5H25.7169C28.0964 0.502618 30.3777 1.44904 32.0603 3.13161C33.743 4.81425 34.6894 7.09567 34.6919 9.47528V25.7166C34.6894 28.0962 33.743 30.3777 32.0603 32.0603C30.3777 33.743 28.0962 34.6894 25.7166 34.6919H9.47528C7.09567 34.6894 4.81425 33.743 3.13161 32.0603C1.44904 30.3777 0.502618 28.0964 0.5 25.7169V9.47501C0.502618 7.09549 1.44903 4.81419 3.13161 3.13161C4.81419 1.44903 7.09549 0.502618 9.47501 0.5ZM26.3417 9.54832C26.7578 9.82635 27.247 9.97475 27.7475 9.97475C28.4186 9.97475 29.0621 9.70816 29.5367 9.23364C30.0112 8.75912 30.2778 8.11552 30.2778 7.44444C30.2778 6.944 30.1294 6.45479 29.8513 6.03868C29.5733 5.62258 29.1781 5.29826 28.7158 5.10675C28.2534 4.91524 27.7447 4.86513 27.2538 4.96276C26.763 5.06039 26.3121 5.30138 25.9583 5.65525C25.6044 6.00912 25.3634 6.45997 25.2658 6.95081C25.1682 7.44164 25.2183 7.9504 25.4098 8.41275C25.6013 8.8751 25.9256 9.27028 26.3417 9.54832ZM22.5101 17.596C22.5101 18.5679 22.2219 19.518 21.6819 20.3261C21.1419 21.1342 20.3745 21.7641 19.4765 22.136C18.5786 22.508 17.5905 22.6053 16.6373 22.4157C15.684 22.2261 14.8084 21.758 14.1211 21.0708C13.4339 20.3835 12.9659 19.5079 12.7762 18.5547C12.5866 17.6014 12.6839 16.6133 13.0559 15.7154C13.4278 14.8175 14.0577 14.05 14.8658 13.51C15.6739 12.97 16.624 12.6818 17.596 12.6818C18.8993 12.6818 20.1492 13.1996 21.0708 14.1211C21.9924 15.0427 22.5101 16.2926 22.5101 17.596Z" fill="#584CB0" stroke="black"/>
</svg>
