<svg width="24" height="24" viewBox="0 0 24 24" fill="none" xmlns="http://www.w3.org/2000/svg">
<path d="M15 22.75H9C3.57 22.75 1.25 20.43 1.25 15V9C1.25 3.57 3.57 1.25 9 1.25H15C20.43 1.25 22.75 3.57 22.75 9V15C22.75 20.43 20.43 22.75 15 22.75ZM9 2.75C4.39 2.75 2.75 4.39 2.75 9V15C2.75 19.61 4.39 21.25 9 21.25H15C19.61 21.25 21.25 19.61 21.25 15V9C21.25 4.39 19.61 2.75 15 2.75H9Z" fill="#C2C0FF"/>
<path d="M15.5801 19.252C15.1701 19.252 14.8301 18.912 14.8301 18.502V14.602C14.8301 14.192 15.1701 13.852 15.5801 13.852C15.9901 13.852 16.3301 14.192 16.3301 14.602V18.502C16.3301 18.912 15.9901 19.252 15.5801 19.252ZM15.5801 8.2C15.1701 8.2 14.8301 7.86 14.8301 7.45V5.5C14.8301 5.09 15.1701 4.75 15.5801 4.75C15.9901 4.75 16.3301 5.09 16.3301 5.5V7.45C16.3301 7.86 15.9901 8.2 15.5801 8.2Z" fill="#C2C0FF"/>
<path d="M15.5799 13.4C14.9174 13.4 14.2697 13.2035 13.7188 12.8354C13.1679 12.4673 12.7385 11.9441 12.4849 11.332C12.2314 10.7199 12.165 10.0463 12.2943 9.39645C12.4236 8.74661 12.7426 8.1497 13.2111 7.68119C13.6796 7.21269 14.2765 6.89363 14.9264 6.76437C15.5762 6.63511 16.2498 6.70145 16.8619 6.955C17.474 7.20856 17.9972 7.63794 18.3653 8.18884C18.7334 8.73974 18.9299 9.38743 18.9299 10.05C18.9299 11.9 17.4199 13.4 15.5799 13.4ZM15.5799 8.2C14.5599 8.2 13.7299 9.03 13.7299 10.05C13.7299 11.07 14.5599 11.9 15.5799 11.9C16.5999 11.9 17.4299 11.07 17.4299 10.05C17.4299 9.03 16.5899 8.2 15.5799 8.2ZM8.41992 19.25C8.00992 19.25 7.66992 18.91 7.66992 18.5V16.55C7.66992 16.14 8.00992 15.8 8.41992 15.8C8.82992 15.8 9.16992 16.14 9.16992 16.55V18.5C9.16992 18.91 8.83992 19.25 8.41992 19.25ZM8.41992 10.15C8.00992 10.15 7.66992 9.81 7.66992 9.4V5.5C7.66992 5.09 8.00992 4.75 8.41992 4.75C8.82992 4.75 9.16992 5.09 9.16992 5.5V9.4C9.16992 9.81 8.83992 10.15 8.41992 10.15Z" fill="#C2C0FF"/>
<path d="M8.42031 17.3021C7.98038 17.3021 7.54476 17.2154 7.13832 17.047C6.73188 16.8787 6.36258 16.6319 6.05151 16.3209C5.74043 16.0098 5.49367 15.6405 5.32532 15.234C5.15696 14.8276 5.07031 14.392 5.07031 13.9521C5.07031 13.5121 5.15696 13.0765 5.32532 12.6701C5.49367 12.2636 5.74043 11.8943 6.05151 11.5832C6.36258 11.2722 6.73188 11.0254 7.13832 10.8571C7.54476 10.6887 7.98038 10.6021 8.42031 10.6021C9.30879 10.6021 10.1609 10.955 10.7891 11.5832C11.4174 12.2115 11.7703 13.0636 11.7703 13.9521C11.7703 14.8405 11.4174 15.6926 10.7891 16.3209C10.1609 16.9491 9.30879 17.3021 8.42031 17.3021ZM8.42031 12.1021C7.40031 12.1021 6.57031 12.9321 6.57031 13.9521C6.57031 14.9721 7.40031 15.8021 8.42031 15.8021C9.44031 15.8021 10.2703 14.9721 10.2703 13.9521C10.2703 12.9321 9.45031 12.1021 8.42031 12.1021Z" fill="#C2C0FF"/>
</svg>
