<svg width="36" height="36" viewBox="0 0 36 36" fill="none" xmlns="http://www.w3.org/2000/svg">
<path d="M29.4099 15.7534H24.6487V12.8626C24.6487 12.1152 24.7588 11.6257 25.0207 11.3147C25.2664 11.023 25.7462 10.776 26.7828 10.776H29.5946H30.0946V10.276V5.52513V5.07552L29.6476 5.02794C28.268 4.88113 26.8814 4.8097 25.494 4.81398C23.3657 4.81414 21.5218 5.46578 20.2084 6.76445C18.8934 8.06478 18.1658 9.95893 18.1658 12.3348V15.7534H14.0768H13.5768V16.2534V21.5638V22.0638H14.0768H18.164V34.6919H1.94259C1.14538 34.6919 0.5 34.0465 0.5 33.2493V1.94259C0.5 1.14538 1.14538 0.5 1.94259 0.5H33.2493C34.0465 0.5 34.6919 1.14538 34.6919 1.94259V33.2493C34.6919 34.0465 34.0465 34.6919 33.2493 34.6919H24.6505V22.0638H28.7254H29.1651L29.2213 21.6278L29.9058 16.3173L29.9785 15.7534H29.4099Z" fill="#584CB0" stroke="black"/>
</svg>
