<svg width="51" height="36" viewBox="0 0 51 36" fill="none" xmlns="http://www.w3.org/2000/svg">
<path d="M49.2419 9.93316L49.2417 9.93135C49.0923 8.31583 48.8731 6.77389 48.5678 5.62461L49.2419 9.93316ZM49.2419 9.93316L49.2727 10.2531L49.2732 10.2588L49.3413 11.0634L49.3416 11.0672L49.3661 11.3862C49.3662 11.3866 49.3662 11.3871 49.3662 11.3876C49.5684 14.2306 49.5934 16.8955 49.5966 17.4798V17.7123C49.5934 18.3186 49.5652 21.1648 49.3412 24.126L49.3166 24.4494L49.3162 24.4545L49.2885 24.7746L49.2419 9.93316ZM14.875 34.4982L14.8775 34.4983L15.1446 34.5106L15.15 34.5108L15.6764 34.5294C19.8646 34.6732 23.8601 34.6919 24.8244 34.6919H25.2682C26.2225 34.6904 30.1462 34.6724 34.2831 34.5329C36.3518 34.4632 38.4696 34.3632 40.2941 34.2201C42.1309 34.0761 43.6319 33.8909 44.4899 33.6602C45.4686 33.3953 46.3604 32.8779 47.0761 32.1596C47.7918 31.4414 48.3062 30.5477 48.5676 29.568C48.9035 28.3027 49.1324 26.5598 49.2884 24.775L14.875 34.4982ZM14.875 34.4982L14.3396 34.4763L13.8057 34.4544C13.8054 34.4544 13.8051 34.4544 13.8048 34.4544C10.3117 34.3002 7.06421 34.053 5.6042 33.6572L5.60391 33.6572M14.875 34.4982L5.60391 33.6572M5.60391 33.6572C4.62541 33.3926 3.73361 32.8755 3.01787 32.1577C2.30217 31.44 1.78763 30.5468 1.52578 29.5677C1.19006 28.3063 0.961238 26.5615 0.805203 24.7774L0.780366 24.4514L0.780338 24.451M5.60391 33.6572L0.780338 24.451M0.780338 24.451L0.75544 24.1274M0.780338 24.451L0.75544 24.1274M0.75544 24.1274C0.755416 24.1271 0.755393 24.1267 0.755369 24.1264C0.601713 22.0165 0.516545 19.9021 0.5 17.7866M0.75544 24.1274L0.5 17.7866M0.5 17.7866V17.4057C0.506275 16.732 0.531371 14.4195 0.699285 11.8694C0.699296 11.8692 0.699307 11.8691 0.699318 11.8689L0.721167 11.5474L0.721193 11.5474L0.721487 11.5423L0.730605 11.3843L0.754981 11.0672L0.755288 11.0634L0.823627 10.256L0.854668 9.93316L0.854836 9.93135C1.0043 8.31526 1.22357 6.77013 1.52893 5.6242L0.5 17.7866ZM15.1474 0.684325L15.1444 0.684448L14.8751 0.693833L14.3397 0.7125L14.3366 0.71262L13.8093 0.734336C13.809 0.73435 13.8087 0.734365 13.8083 0.734379C10.3167 0.891679 7.06813 1.14184 5.60629 1.53183C4.62776 1.79674 3.73603 2.31417 3.02046 3.03227C2.30472 3.75054 1.79037 4.64434 1.52897 5.62406L15.1474 0.684325ZM15.1474 0.684325L15.6807 0.662495M15.1474 0.684325L15.6807 0.662495M15.6807 0.662495C18.6549 0.566808 21.6304 0.51368 24.6061 0.503131H25.2095H25.7095V0.500921C27.1801 0.507711 30.8794 0.537964 34.683 0.673077C36.6902 0.744381 38.7222 0.844744 40.4689 0.985822C42.2272 1.12783 43.6595 1.30853 44.4895 1.53162C45.4679 1.79733 46.3595 2.31512 47.0751 3.03329C47.7906 3.75135 48.3052 4.64457 48.5675 5.62375L15.6807 0.662495ZM20.2907 9.61869L19.5399 9.18343V10.0513V25.1375V26.005L20.2905 25.5702L33.307 18.0302L34.0536 17.5977L33.3072 17.165L20.2907 9.61869Z" fill="#584CB0" stroke="black"/>
</svg>
