<svg width="24" height="24" viewBox="0 0 24 24" fill="none" xmlns="http://www.w3.org/2000/svg">
<path d="M15 22.75H9C3.57 22.75 1.25 20.43 1.25 15V9C1.25 3.57 3.57 1.25 9 1.25H14C14.41 1.25 14.75 1.59 14.75 2C14.75 2.41 14.41 2.75 14 2.75H9C4.39 2.75 2.75 4.39 2.75 9V15C2.75 19.61 4.39 21.25 9 21.25H15C19.61 21.25 21.25 19.61 21.25 15V10C21.25 9.59 21.59 9.25 22 9.25C22.41 9.25 22.75 9.59 22.75 10V15C22.75 20.43 20.43 22.75 15 22.75Z" fill="#C2C0FF"/>
<path d="M22 10.748H18C14.58 10.748 13.25 9.41804 13.25 5.99804V1.99804C13.25 1.69804 13.43 1.41804 13.71 1.30804C13.99 1.18804 14.31 1.25804 14.53 1.46804L22.53 9.46804C22.6343 9.57311 22.7052 9.70665 22.7338 9.85189C22.7624 9.99713 22.7474 10.1476 22.6908 10.2843C22.6342 10.4211 22.5384 10.5381 22.4155 10.6206C22.2926 10.7031 22.148 10.7474 22 10.748ZM14.75 3.80804V5.99804C14.75 8.57804 15.42 9.24804 18 9.24804H20.19L14.75 3.80804Z" fill="#C2C0FF"/>
</svg>
