<svg width="125" height="115" viewBox="0 0 125 115" fill="none" xmlns="http://www.w3.org/2000/svg">
<path d="M108.525 31.0695C99.581 35.6164 92.9419 33.4733 86.3506 26.8851M44.9998 26.0044L87.7182 68.7228L22.2209 111.146L3 91.9246L44.9998 26.0044ZM108.37 44.405C105 47.7786 102.774 47.8072 99.4288 48.955C99.3239 57.8453 99.4479 66.7928 88.1665 68.9995L44.2367 25.0696C44.2367 25.0696 44.2081 20.7135 48.6755 18.4401C50.2494 17.7024 53.4418 18.049 55.3432 18.3606C59.8137 8.74218 66.5832 7.11738 74.1126 10.2271C77.7215 4.76445 86.6403 2.43696 93.2794 4.58321C99.9217 6.72947 99.8676 11.1746 104.287 13.3431C108.707 15.5148 113.203 11.0188 113.228 8.79623C113.254 6.57049 112.866 2.32249 115.861 3.09197C117.689 3.58799 119.162 5.3654 120.936 12.7708C121.922 16.9297 121.349 23.0792 117.798 26.8534C115.616 29.1713 110.748 30.3828 108.526 31.0728C108.736 31.6769 111.747 41.0346 108.37 44.405Z" stroke="#3C3C3C" stroke-width="5.72" stroke-linecap="round" stroke-linejoin="round"/>
</svg>
