<svg width="24" height="24" viewBox="0 0 24 24" fill="none" xmlns="http://www.w3.org/2000/svg">
<path d="M15 22.75H9C3.57 22.75 1.25 20.43 1.25 15V9C1.25 3.57 3.57 1.25 9 1.25H15C20.43 1.25 22.75 3.57 22.75 9V15C22.75 20.43 20.43 22.75 15 22.75ZM9 2.75C4.39 2.75 2.75 4.39 2.75 9V15C2.75 19.61 4.39 21.25 9 21.25H15C19.61 21.25 21.25 19.61 21.25 15V9C21.25 4.39 19.61 2.75 15 2.75H9Z" fill="#C2C0FF"/>
<path d="M7.33022 15.2381C7.17022 15.2381 7.01022 15.1881 6.87022 15.0781C6.79208 15.0183 6.72647 14.9438 6.67715 14.8586C6.62782 14.7735 6.59574 14.6796 6.58274 14.5821C6.56974 14.4846 6.57607 14.3854 6.60138 14.2904C6.62668 14.1953 6.67046 14.1062 6.73022 14.0281L9.11022 10.9381C9.40022 10.5681 9.81022 10.3281 10.2802 10.2681C10.7402 10.2081 11.2102 10.3381 11.5802 10.6281L13.4102 12.0681C13.4802 12.1281 13.5502 12.1281 13.6002 12.1181C13.6402 12.1181 13.7102 12.0981 13.7702 12.0181L16.0802 9.03806C16.14 8.95967 16.2147 8.894 16.3002 8.84491C16.3857 8.79582 16.4801 8.7643 16.5779 8.75219C16.6757 8.74008 16.7749 8.74763 16.8698 8.7744C16.9646 8.80116 17.0532 8.8466 17.1302 8.90806C17.4602 9.15806 17.5202 9.62806 17.2602 9.95806L14.9502 12.9381C14.6602 13.3081 14.2502 13.5481 13.7802 13.5981C13.3102 13.6581 12.8502 13.5281 12.4802 13.2381L10.6502 11.7981C10.6246 11.7756 10.5941 11.7593 10.5611 11.7507C10.5281 11.742 10.4936 11.7411 10.4602 11.7481C10.4202 11.7481 10.3502 11.7681 10.2902 11.8481L7.91022 14.9381C7.78022 15.1381 7.56022 15.2381 7.33022 15.2381Z" fill="#C2C0FF"/>
</svg>
