<svg width="226" height="170" viewBox="0 0 226 170" fill="none" xmlns="http://www.w3.org/2000/svg">
<path d="M211.875 100.625H213.375V99.125V28.5C213.375 24.356 211.729 20.3817 208.799 17.4515C205.868 14.5212 201.894 12.875 197.75 12.875H28.25C24.106 12.875 20.1317 14.5212 17.2015 17.4515C14.2712 20.3817 12.625 24.356 12.625 28.5V99.125V100.625H14.125H211.875ZM14.125 125.875H12.625V127.375V141.5C12.625 145.644 14.2712 149.618 17.2015 152.549C20.1317 155.479 24.106 157.125 28.25 157.125H197.75C201.894 157.125 205.868 155.479 208.799 152.549C211.729 149.618 213.375 145.644 213.375 141.5V127.375V125.875H211.875H14.125ZM156.875 49.6875C156.875 48.2122 157.461 46.7974 158.504 45.7542C159.547 44.711 160.962 44.125 162.438 44.125H190.688C192.163 44.125 193.578 44.711 194.621 45.7542C195.664 46.7974 196.25 48.2122 196.25 49.6875V63.8125C196.25 65.2878 195.664 66.7026 194.621 67.7458C193.578 68.789 192.163 69.375 190.688 69.375H162.438C160.962 69.375 159.547 68.789 158.504 67.7458C157.461 66.7026 156.875 65.2878 156.875 63.8125V49.6875ZM9.33489 9.58489C14.3515 4.56829 21.1555 1.75 28.25 1.75H197.75C204.845 1.75 211.648 4.56829 216.665 9.58489C221.682 14.6015 224.5 21.4055 224.5 28.5V141.5C224.5 148.595 221.682 155.398 216.665 160.415C211.648 165.432 204.845 168.25 197.75 168.25H28.25C21.1555 168.25 14.3515 165.432 9.33489 160.415C4.3183 155.398 1.5 148.595 1.5 141.5V28.5C1.5 21.4055 4.3183 14.6015 9.33489 9.58489Z" fill="#FFD867" stroke="white" stroke-width="3"/>
</svg>
