<svg width="52" height="64" viewBox="0 0 52 64" fill="none" xmlns="http://www.w3.org/2000/svg">
<path d="M6.4 64C4.64001 64 3.1328 63.3728 1.8784 62.1184C0.624005 60.864 -0.0021279 59.3579 5.43294e-06 57.6V19.2C5.43294e-06 17.44 0.627205 15.9328 1.8816 14.6784C3.136 13.424 4.64214 12.7979 6.4 12.8H12.8C12.8 9.28 14.0533 6.26667 16.56 3.76C19.0667 1.25333 22.08 0 25.6 0C29.12 0 32.1333 1.25333 34.64 3.76C37.1467 6.26667 38.4 9.28 38.4 12.8H44.8C46.56 12.8 48.0672 13.4272 49.3216 14.6816C50.576 15.936 51.2021 17.4421 51.2 19.2V57.6C51.2 59.36 50.5728 60.8672 49.3184 62.1216C48.064 63.376 46.5579 64.0021 44.8 64H6.4ZM6.4 57.6H44.8V19.2H38.4V25.6C38.4 26.5067 38.0928 27.2672 37.4784 27.8816C36.864 28.496 36.1045 28.8021 35.2 28.8C34.2933 28.8 33.5328 28.4928 32.9184 27.8784C32.304 27.264 31.9979 26.5045 32 25.6V19.2H19.2V25.6C19.2 26.5067 18.8928 27.2672 18.2784 27.8816C17.664 28.496 16.9045 28.8021 16 28.8C15.0933 28.8 14.3328 28.4928 13.7184 27.8784C13.104 27.264 12.7979 26.5045 12.8 25.6V19.2H6.4V57.6ZM19.2 12.8H32C32 11.04 31.3728 9.5328 30.1184 8.2784C28.864 7.024 27.3579 6.39787 25.6 6.4C23.84 6.4 22.3328 7.0272 21.0784 8.2816C19.824 9.536 19.1979 11.0421 19.2 12.8Z" fill="white"/>
</svg>
